<svg version="1" xmlns="http://www.w3.org/2000/svg" width="933.333" height="933.333" viewBox="0 0 700.000000 700.000000"><path d="M146.8 86.8l-14.8.3V613l218.3-.2 218.2-.3-.2-83.4c-.1-45.8-.3-83.5-.5-83.7-.2-.2-57.6-.5-127.6-.7-69.9-.2-127.5-.7-127.9-1-.3-.4-.5-6.4-.4-13.4.5-20.7.9-47.1 1-57.9l.1-10.1 5.3-.8c2.8-.4 6.8-.9 8.7-1.1 1.9-.2 6.5-.9 10.3-1.4 3.7-.6 8.6-1.2 11-1.5 2.3-.3 5.3-.7 6.7-1 1.4-.2 4.5-.7 7-1 2.5-.3 7.4-1 11-1.5 3.6-.5 8.5-1.2 11-1.5 2.5-.3 5.6-.7 7-.9 1.4-.3 4.8-.7 7.5-1.1 2.8-.3 7.7-1 11-1.5s8-1.2 10.5-1.5c4.7-.6 6.9-1 13.5-1.9 2.2-.4 5.8-.8 8-1.1 2.2-.2 5.8-.7 8-1.1 2.2-.3 5.1-.7 6.5-.9 1.4-.2 5.9-.8 10-1.4 4.1-.6 9.3-1.3 11.5-1.6 4.2-.4 17.2-2.3 21.5-3 1.4-.2 4.9-.7 7.9-1 3-.4 6.3-.8 7.4-1.1 1-.2 4.5-.6 7.6-1 3.1-.3 6.3-.7 7.1-.9.8-.1 4-.6 7-1s6.2-.9 7-1c.8-.1 3.9-.6 6.8-1l5.2-.7V157h-2.2c-1.3 0-5 .4-8.3 1-3.3.5-7.6 1.1-9.5 1.4-1.9.3-5.1.7-7 1-3.4.5-23.3 3.5-27.5 4.1-1.1.1-4.5.5-7.5.9s-6.2.9-7 1.1c-.8.2-4 .7-7 1-3 .3-8 1-11 1.5s-7.5 1.2-10 1.5c-6.7.8-19.2 2.7-21.5 3.1-1.1.2-4 .7-6.5 1-2.5.2-5.6.7-7 .9-1.4.2-4.5.6-7 1-2.5.3-8.8 1.2-14 2-5.2.8-11.3 1.7-13.5 2-2.2.3-5.3.8-7 1-1.6.3-6.4.9-10.5 1.5-4.1.5-8.6 1.2-10 1.4-1.4.3-7.7 1.2-14 2.1-15.6 2.2-18.1 2.6-21 3-1.4.3-5 .7-8 1.1l-5.6.6-.1-20.3c-.1-11.2-.2-34.7-.4-52.2l-.2-31.7h-14.6c-8 0-41.8-.1-75.1-.3-33.3-.1-67.1-.1-75.2.1z"/></svg>